<svg width="16" height="16" viewBox="0 0 16 16" fill="none" xmlns="http://www.w3.org/2000/svg">
<path fill-rule="evenodd" clip-rule="evenodd" d="M11.8096 2.66667H13.3334V4.19048H11.8096V2.66667ZM10.2858 5.71429V4.19048H11.8096V5.71429H10.2858ZM8.76199 7.2381V5.71429H10.2858V7.2381H8.76199ZM7.23818 8.76191V7.2381H8.76199V8.76191H7.23818ZM5.71437 10.2857V8.76191H7.23818V10.2857H5.71437ZM4.19056 11.8095V10.2857H5.71437V11.8095H4.19056ZM4.19056 11.8095V13.3333H2.66675V11.8095H4.19056Z" fill="white"/>
<path fill-rule="evenodd" clip-rule="evenodd" d="M4.19064 2.66667H2.66683V4.19048H4.19064V2.66667ZM5.71445 5.71429V4.19048H4.19064V5.71429H5.71445ZM7.23826 7.2381V5.71429H5.71445V7.2381H7.23826ZM8.76207 8.76191V7.2381H7.23826V8.76191H8.76207ZM10.2859 10.2857V8.76191H8.76207V10.2857H10.2859ZM11.8097 11.8095V10.2857H10.2859V11.8095H11.8097ZM11.8097 11.8095V13.3333H13.3335V11.8095H11.8097Z" fill="white"/>
</svg>
