<svg width="25" height="24" viewBox="0 0 25 24" fill="none" xmlns="http://www.w3.org/2000/svg">
<path d="M20.1667 22.432H4.83333V21.1905H3.55556V18.7076H2.27778V16.2246H1V8.77575H2.27778V6.29279H3.55556V3.80984H4.83333V2.56836H20.1667V3.80984H21.4444V6.29279H22.7222V8.77575H24V16.2246H22.7222V18.7076H21.4444V21.1905H20.1667V22.432ZM13.7778 18.7076V16.2246H11.2222V18.7076H13.7778ZM18.8889 19.949V17.4661H20.1667V13.7417H21.4444V11.2587H20.1667V7.53427H18.8889V5.05131H6.11111V7.53427H4.83333V11.2587H3.55556V13.7417H4.83333V17.4661H6.11111V19.949H9.94444V18.7076H8.66667V16.2246H9.94444V14.9831H11.2222V13.7417H13.7778V14.9831H15.0556V16.2246H16.3333V18.7076H15.0556V19.949H18.8889Z" fill="#EB642A"/>
</svg>
