<svg width="28" height="28" viewBox="0 0 28 28" fill="none" xmlns="http://www.w3.org/2000/svg">
<path d="M22.9444 26.1705H5.05554V24.7221H3.56479V21.8253H2.07405V18.9285H0.583313V10.2382H2.07405V7.34139H3.56479V4.44461H5.05554V2.99622H22.9444V4.44461H24.4352V7.34139H25.9259V10.2382H27.4166V18.9285H25.9259V21.8253H24.4352V24.7221H22.9444V26.1705ZM15.4907 21.8253V18.9285H12.5092V21.8253H15.4907ZM21.4537 23.2737V20.3769H22.9444V16.0317H24.4352V13.1349H22.9444V8.78978H21.4537V5.893H6.54628V8.78978H5.05554V13.1349H3.56479V16.0317H5.05554V20.3769H6.54628V23.2737H11.0185V21.8253H9.52776V18.9285H11.0185V17.4801H12.5092V16.0317H15.4907V17.4801H16.9815V18.9285H18.4722V21.8253H16.9815V23.2737H21.4537Z" fill="#EB642A"/>
<path d="M21.4537 23.2737V20.3769H22.9444V16.0317H24.4352V13.1349H22.9444V8.78978H21.4537V5.893H6.54628V8.78978H5.05554V13.1349H3.56479V16.0317H5.05554V20.3769H6.54628V23.2737H11.0185V21.8253H9.52776V18.9285H11.0185V17.4801H12.5092V16.0317H15.4907V17.4801H16.9815V18.9285H18.4722V21.8253H16.9815V23.2737H21.4537Z" fill="#EB642A"/>
<path d="M15.4907 21.8253V18.9285H12.5092V21.8253H15.4907Z" fill="#EB642A"/>
<path d="M22.9444 26.1705H5.05554V24.7221H3.56479V21.8253H2.07405V18.9285H0.583313V10.2382H2.07405V7.34139H3.56479V4.44461H5.05554V2.99622H22.9444V4.44461H24.4352V7.34139H25.9259V10.2382H27.4166V18.9285H25.9259V21.8253H24.4352V24.7221H22.9444V26.1705ZM15.4907 21.8253V18.9285H12.5092V21.8253H15.4907ZM21.4537 23.2737V20.3769H22.9444V16.0317H24.4352V13.1349H22.9444V8.78978H21.4537V5.893H6.54628V8.78978H5.05554V13.1349H3.56479V16.0317H5.05554V20.3769H6.54628V23.2737H11.0185V21.8253H9.52776V18.9285H11.0185V17.4801H12.5092V16.0317H15.4907V17.4801H16.9815V18.9285H18.4722V21.8253H16.9815V23.2737H21.4537Z" fill="white"/>
</svg>
