<svg width="29" height="29" viewBox="0 0 29 29" fill="none" xmlns="http://www.w3.org/2000/svg">
<g clip-path="url(#clip0_360_3584)">
<path d="M13.1027 3.49463H6.21939V5.78907H3.92494V12.6724H6.21939V14.9669H13.1027V12.6724H6.21939V5.78907H13.1027V3.49463ZM13.1027 5.78907H15.3972V12.6724H13.1027V5.78907ZM0.483276 19.5557H2.77772V24.1446H16.5444V26.4391H0.483276V19.5557ZM2.77772 19.5557H16.5444V17.2613H2.77772V19.5557ZM18.8388 19.5557H16.5444V26.4391H18.8388V19.5557ZM17.6916 3.49463H22.2805V5.78907H17.6916V3.49463ZM22.2805 12.6724H17.6916V14.9669H22.2805V12.6724ZM22.2805 5.78907H24.5749V12.6724H22.2805V5.78907ZM28.0166 19.5557H25.7222V24.1446H21.1333V26.4391H28.0166V19.5557ZM21.1333 17.2613H25.7222V19.5557H21.1333V17.2613Z" fill="#EB642A"/>
</g>
<defs>
<clipPath id="clip0_360_3584">
<rect width="28" height="28" fill="white" transform="translate(0.25 0.5)"/>
</clipPath>
</defs>
</svg>
