<svg width="31" height="31" viewBox="0 0 31 31" fill="none" xmlns="http://www.w3.org/2000/svg">
<g clip-path="url(#clip0_18_610)">
<path d="M14.0208 3.70834H6.64583V6.16668H4.1875V13.5417H6.64583V16H14.0208V13.5417H6.64583V6.16668H14.0208V3.70834ZM14.0208 6.16668H16.4792V13.5417H14.0208V6.16668ZM0.5 20.9167H2.95833V25.8333H17.7083V28.2917H0.5V20.9167ZM2.95833 20.9167H17.7083V18.4583H2.95833V20.9167ZM20.1667 20.9167H17.7083V28.2917H20.1667V20.9167ZM18.9375 3.70834H23.8542V6.16668H18.9375V3.70834ZM23.8542 13.5417H18.9375V16H23.8542V13.5417ZM23.8542 6.16668H26.3125V13.5417H23.8542V6.16668ZM30 20.9167H27.5417V25.8333H22.625V28.2917H30V20.9167ZM22.625 18.4583H27.5417V20.9167H22.625V18.4583Z" fill="#EB642A"/>
<path d="M6.64583 13.5417H14.0208V6.16668H6.64583V13.5417Z" fill="#EB642A"/>
<path d="M2.95833 20.9167V25.8333H17.7083V20.9167H2.95833Z" fill="#EB642A"/>
<path d="M14.0208 3.70834H6.64583V6.16668H4.1875V13.5417H6.64583V16H14.0208V13.5417H6.64583V6.16668H14.0208V3.70834ZM14.0208 6.16668H16.4792V13.5417H14.0208V6.16668ZM0.5 20.9167H2.95833V25.8333H17.7083V28.2917H0.5V20.9167ZM2.95833 20.9167H17.7083V18.4583H2.95833V20.9167ZM20.1667 20.9167H17.7083V28.2917H20.1667V20.9167ZM18.9375 3.70834H23.8542V6.16668H18.9375V3.70834ZM23.8542 13.5417H18.9375V16H23.8542V13.5417ZM23.8542 6.16668H26.3125V13.5417H23.8542V6.16668ZM30 20.9167H27.5417V25.8333H22.625V28.2917H30V20.9167ZM22.625 18.4583H27.5417V20.9167H22.625V18.4583Z" fill="white"/>
</g>
<defs>
<clipPath id="clip0_18_610">
<rect width="30" height="30" fill="white" transform="translate(0.25 0.5)"/>
</clipPath>
</defs>
</svg>
