<svg width="56" height="56" viewBox="0 0 56 56" fill="none" xmlns="http://www.w3.org/2000/svg">
<path d="M43.3828 19.1633V16.1337H37.3292V13.1097H34.2996V16.1337H31.2756V13.1097H28.246V16.1337H22.1924V19.1633H28.246V22.1929H10.0796V46.4129H46.4124V22.1929H37.3292V19.1633H43.3828ZM13.1092 25.2169H31.2756V34.3001H13.1092V25.2169ZM13.1092 43.3833V37.3297H31.2756V43.3833H13.1092ZM43.3828 43.3833H34.2996V37.3297H43.3828V43.3833ZM43.3828 25.2169V34.3001H34.2996V25.2169H43.3828ZM43.3828 16.1337V13.1097H46.4124V16.1337H43.3828ZM37.3292 13.1097V10.0801H43.3828V13.1097H37.3292ZM22.1924 13.1097V10.0801H28.246V13.1097H22.1924ZM22.1924 13.1097V16.1337H19.1628V13.1097H22.1924Z" fill="#EB642A"/>
</svg>
