<svg width="20" height="20" viewBox="0 0 20 20" fill="none" xmlns="http://www.w3.org/2000/svg">
<path d="M7.50004 1.66667H4.16671V3.33334H2.50004V5.00001H0.833374V10H2.50004V11.6667H4.16671V13.3333H5.83337V15H7.50004V16.6667H9.16671V18.3333H10.8334V16.6667H12.5V15H14.1667V13.3333H15.8334V11.6667H17.5V10H19.1667V5.00001H17.5V3.33334H15.8334V1.66667H12.5V3.33334H10.8334V5.00001H9.16671V3.33334H7.50004V1.66667ZM7.50004 3.33334V5.00001H9.16671V6.66667H10.8334V5.00001H12.5V3.33334H15.8334V5.00001H17.5V10H15.8334V11.6667H14.1667V13.3333H12.5V15H10.8334V16.6667H9.16671V15H7.50004V13.3333H5.83337V11.6667H4.16671V10H2.50004V5.00001H4.16671V3.33334H7.50004Z" fill="#EB642A"/>
</svg>
