<svg width="16" height="17" viewBox="0 0 16 17" fill="none" xmlns="http://www.w3.org/2000/svg">
<path d="M6.00003 1.83337H3.33337V3.16671H2.00003V4.50004H0.666699V8.50004H2.00003V9.83337H3.33337V11.1667H4.6667V12.5H6.00003V13.8334H7.33337V15.1667H8.6667V13.8334H10V12.5H11.3334V11.1667H12.6667V9.83337H14V8.50004H15.3334V4.50004H14V3.16671H12.6667V1.83337H10V3.16671H8.6667V4.50004H7.33337V3.16671H6.00003V1.83337ZM6.00003 3.16671V4.50004H7.33337V5.83337H8.6667V4.50004H10V3.16671H12.6667V4.50004H14V8.50004H12.6667V9.83337H11.3334V11.1667H10V12.5H8.6667V13.8334H7.33337V12.5H6.00003V11.1667H4.6667V9.83337H3.33337V8.50004H2.00003V4.50004H3.33337V3.16671H6.00003Z" fill="#EB642A"/>
<path d="M6.00003 4.50004V3.16671H3.33337V4.50004H2.00003V8.50004H3.33337V9.83337H4.6667V11.1667H6.00003V12.5H7.33337V13.8334H8.6667V12.5H10V11.1667H11.3334V9.83337H12.6667V8.50004H14V4.50004H12.6667V3.16671H10V4.50004H8.6667V5.83337H7.33337V4.50004H6.00003Z" fill="#EB642A"/>
<path d="M6.00002 1.83337H3.33335V3.16671H2.00002V4.50004H0.666687V8.50004H2.00002V9.83337H3.33335V11.1667H4.66669V12.5H6.00002V13.8334H7.33335V15.1667H8.66669V13.8334H10V12.5H11.3334V11.1667H12.6667V9.83337H14V8.50004H15.3334V4.50004H14V3.16671H12.6667V1.83337H10V3.16671H8.66669V4.50004H7.33335V3.16671H6.00002V1.83337ZM6.00002 3.16671V4.50004H7.33335V5.83337H8.66669V4.50004H10V3.16671H12.6667V4.50004H14V8.50004H12.6667V9.83337H11.3334V11.1667H10V12.5H8.66669V13.8334H7.33335V12.5H6.00002V11.1667H4.66669V9.83337H3.33335V8.50004H2.00002V4.50004H3.33335V3.16671H6.00002Z" fill="white"/>
</svg>
