<svg width="31" height="31" viewBox="0 0 31 31" fill="none" xmlns="http://www.w3.org/2000/svg">
<path d="M22.75 3H25.25V28H5.25V8H7.75V25.5H22.75V5.5H10.25V3H22.75ZM10.25 5.5H7.75V8H10.25V5.5ZM17.75 8H20.25V13H17.75V8ZM15.25 8H12.75V13H15.25V8Z" fill="#EB642A"/>
<path fill-rule="evenodd" clip-rule="evenodd" d="M7.75 8V25.5H22.75V5.5H10.25V8H7.75ZM20.25 8H17.75V13H20.25V8ZM12.75 8H15.25V13H12.75V8Z" fill="#EB642A"/>
<path d="M22.75 3H25.25V28H5.25V8H7.75V25.5H22.75V5.5H10.25V3H22.75ZM10.25 5.5H7.75V8H10.25V5.5ZM17.75 8H20.25V13H17.75V8ZM15.25 8H12.75V13H15.25V8Z" fill="white"/>
</svg>
