<svg width="31" height="31" viewBox="0 0 31 31" fill="none" xmlns="http://www.w3.org/2000/svg">
<path d="M17 3H14.5V5.5H12V10.5H9.5V15.5H7V23H9.5V25.5H12V28H19.5V25.5H22V23H24.5V15.5H22V10.5H19.5V5.5H17V3ZM17 5.5V10.5H19.5V15.5H22V19.25H9.5V15.5H12V10.5H14.5V5.5H17Z" fill="#EB642A"/>
<path d="M17 10.5V5.5H14.5V10.5H12V15.5H9.5V19.25H22V15.5H19.5V10.5H17Z" fill="#EB642A"/>
<path d="M17 3H14.5V5.5H12V10.5H9.5V15.5H7V23H9.5V25.5H12V28H19.5V25.5H22V23H24.5V15.5H22V10.5H19.5V5.5H17V3ZM17 5.5V10.5H19.5V15.5H22V19.25H9.5V15.5H12V10.5H14.5V5.5H17Z" fill="white"/>
</svg>
