<svg width="20" height="21" viewBox="0 0 20 21" fill="none" xmlns="http://www.w3.org/2000/svg">
<path d="M5.00008 2.1665H15.0001V3.83317H5.00008V2.1665ZM3.33341 5.49984V3.83317H5.00008V5.49984H3.33341ZM3.33341 15.4998V5.49984H1.66675V15.4998H3.33341ZM5.00008 17.1665V15.4998H3.33341V17.1665H5.00008ZM15.0001 17.1665V18.8332H5.00008V17.1665H15.0001ZM16.6667 15.4998V17.1665H15.0001V15.4998H16.6667ZM16.6667 5.49984H18.3334V15.4998H16.6667V5.49984ZM16.6667 5.49984V3.83317H15.0001V5.49984H16.6667ZM9.16675 4.6665H10.8334V6.33317H13.3334V7.99984H8.33341V9.6665H13.3334V14.6665H10.8334V16.3332H9.16675V14.6665H6.66675V12.9998H11.6667V11.3332H6.66675V6.33317H9.16675V4.6665Z" fill="#ff2d2d"/>
</svg>
