<svg width="31" height="31" viewBox="0 0 31 31" fill="none" xmlns="http://www.w3.org/2000/svg">
<path d="M8.25 4.25H25.75V6.75H28.25V14.25H25.75V24.25H23.25V6.75H8.25V4.25ZM18.25 21.75V19.25H8.25V6.75H5.75V19.25H3.25V24.25H5.75V26.75H23.25V24.25H20.75V21.75H18.25ZM18.25 21.75V24.25H5.75V21.75H18.25Z" fill="#EB642A"/>
<path d="M23.25 24.25V6.75H8.25V19.25H18.25V21.75H20.75V24.25H23.25Z" fill="#EB642A"/>
<path d="M18.25 24.25V21.75H5.75V24.25H18.25Z" fill="#EB642A"/>
<path d="M8.25 4.25H25.75V6.75H28.25V14.25H25.75V24.25H23.25V6.75H8.25V4.25ZM18.25 21.75V19.25H8.25V6.75H5.75V19.25H3.25V24.25H5.75V26.75H23.25V24.25H20.75V21.75H18.25ZM18.25 21.75V24.25H5.75V21.75H18.25Z" fill="white"/>
</svg>
