<svg width="20" height="21" viewBox="0 0 20 21" fill="none" xmlns="http://www.w3.org/2000/svg">
<path d="M16.3874 14.7088V16.5143V18.3217H18.194V16.5143H20V14.7088H18.194H16.3874Z" fill="#FF2D55"/>
<path d="M18.194 2H16.3874V3.80522V5.6783H18.194H20V3.80522H18.194V2Z" fill="#FF2D55"/>
<path d="M16.3874 11.0962V9.29071V7.485H14.5145V5.67831H12.7088H10.9021H9.09655H7.29084H5.48403V7.485H3.67831V9.29071V11.0962V12.9034H5.48403V14.7088V16.5143V18.3217H7.29084V16.5143H9.09655V18.3217H10.9021V16.5143H12.7088V18.3217H14.5145V16.5143V14.7088V12.9034H16.3874V11.0962ZM5.48403 9.29071H7.29084H9.09655V11.0962H7.29084H5.48403V9.29071ZM9.09655 14.7088V12.9034H10.9021V14.7088H9.09655ZM12.7088 11.0962H10.9021V9.29071H12.7088H14.5145V11.0962H12.7088Z" fill="#FF2D55"/>
<path d="M3.6783 5.6783V3.80522V2H1.87259V3.80522H0V5.6783H1.87259H3.6783Z" fill="#FF2D55"/>
<path d="M0 14.7088V16.5143H1.87259V18.3217H3.6783V16.5143V14.7088H1.87259H0Z" fill="#FF2D55"/>
</svg>
