<svg width="20" height="21" viewBox="0 0 20 21" fill="none" xmlns="http://www.w3.org/2000/svg">
<path d="M9.52396 11.176H8.17596V12.524H9.52396V11.176Z" fill="#EB642A"/>
<path d="M8.17596 12.524H6.82401V13.876H8.17601L8.17596 12.524Z" fill="#EB642A"/>
<path d="M10.874 9.824V8.476H12.226V7.124H13.574V5.776H14.926V3.076H13.574V4.424H12.226V5.776H10.874V7.124H9.52596V8.476H8.17596V9.824H10.874Z" fill="#EB642A"/>
<path d="M17.626 5.776H16.274V7.124H17.626V5.776Z" fill="#EB642A"/>
<path d="M14.926 1.726V3.076L17.626 3.076L17.626 5.776L18.974 5.776V3.076H18.976V1.726H14.926Z" fill="#EB642A"/>
<path d="M16.274 7.124H14.926V8.476H16.274L16.274 7.124Z" fill="#EB642A"/>
<path d="M14.926 8.476H13.574V9.824H14.926L14.926 8.476Z" fill="#EB642A"/>
<path d="M13.574 9.824H12.226V11.176H13.574L13.574 9.824Z" fill="#EB642A"/>
<path d="M12.226 16.574H10.874V17.926H12.226V16.574Z" fill="#EB642A"/>
<path d="M12.226 11.176L10.874 11.176V12.524H12.226L12.226 11.176Z" fill="#EB642A"/>
<path d="M10.874 17.924H9.52596V19.272H10.874V17.924Z" fill="#EB642A"/>
<path d="M11.5002 17.5L12.226 16.574L13.574 16.574V13.876H10.874L10.874 12.524H9.52596L11.5002 17.5Z" fill="#EB642A"/>
<path d="M9.52596 17.924L5.47596 15.224V16.574H8.17597V17.924L9.52596 17.924Z" fill="#EB642A"/>
<path d="M5.47596 11.176L8.17596 11.176V9.824L6.82396 9.824V8.476H5.47596V11.176Z" fill="#EB642A"/>
<path d="M5.47596 11.176L2.77596 11.176V12.524H4.12396V15.224H5.47596V11.176Z" fill="#EB642A"/>
<path d="M5.47601 7.124H4.12401V8.476H5.47596L5.47601 7.124Z" fill="#EB642A"/>
<path d="M4.12396 17.924H2.77596V19.272H4.12396V17.924Z" fill="#EB642A"/>
<path d="M4.12401 8.476H2.77596V9.824H4.12396L4.12401 8.476Z" fill="#EB642A"/>
<path d="M2.77601 16.574H1.42401V17.926H2.77601V16.574Z" fill="#EB642A"/>
<path d="M2.77596 9.824H1.42401V11.176L2.77596 11.176V9.824Z" fill="#EB642A"/>
<path d="M5.47596 8.476H4.12401L4.12396 9.824H2.77596V11.176L5.47596 11.176V8.476Z" fill="#EB642A"/>
<path d="M8.17596 11.176H9.52396V12.524H8.17596L8.17601 13.876H6.82401V12.524H8.17596V11.176L5.47596 11.176V15.224L9.52596 17.924H10.874L11.5002 17.5L9.52596 12.524H10.874V11.176L12.226 11.176V9.824H13.574V8.476H14.926V7.124H16.274V5.776H17.626L17.626 3.076L14.926 3.076V5.776H13.574V7.124H12.226V8.476H10.874V9.824H8.17596V11.176Z" fill="#EB642A"/>
<path d="M9.52378 11.176H8.17578V12.524H9.52378V11.176Z" fill="#EB642A"/>
<path d="M8.17578 12.524H6.82383V13.876H8.17583L8.17578 12.524Z" fill="#EB642A"/>
<path d="M10.8738 9.824V8.476H12.2258V7.124H13.5738V5.776H14.9258V3.076H13.5738V4.424H12.2258V5.776H10.8738V7.124H9.52578V8.476H8.17578V9.824H10.8738Z" fill="#EB642A"/>
<path d="M17.6258 5.776H16.2738V7.124H17.6258V5.776Z" fill="#EB642A"/>
<path d="M14.9258 1.726V3.076L17.6258 3.076L17.6258 5.776L18.9738 5.776V3.076H18.9758V1.726H14.9258Z" fill="#EB642A"/>
<path d="M16.2738 7.124H14.9258V8.476H16.2738L16.2738 7.124Z" fill="#EB642A"/>
<path d="M14.9258 8.476H13.5738V9.824H14.9258L14.9258 8.476Z" fill="#EB642A"/>
<path d="M13.5738 9.824H12.2258V11.176H13.5738L13.5738 9.824Z" fill="#EB642A"/>
<path d="M12.2258 16.574H10.8738V17.926H12.2258V16.574Z" fill="#EB642A"/>
<path d="M12.2258 11.176L10.8738 11.176V12.524H12.2258L12.2258 11.176Z" fill="#EB642A"/>
<path d="M10.8738 17.924H9.52578V19.272H10.8738V17.924Z" fill="#EB642A"/>
<path d="M9.52578 15.224H12.2258L12.2258 16.574L13.5738 16.574V13.876H10.8738L10.8738 12.524H9.52578V15.224Z" fill="#EB642A"/>
<path d="M9.52578 15.224H5.47578V16.574H8.17578V17.924L9.52578 17.924V15.224Z" fill="#EB642A"/>
<path d="M5.47578 11.176L8.17578 11.176V9.824L6.82378 9.824V8.476H5.47578V11.176Z" fill="#EB642A"/>
<path d="M5.47578 16.574L4.12383 16.574V17.926H5.47583L5.47578 16.574Z" fill="#EB642A"/>
<path d="M5.47578 11.176L2.77578 11.176V12.524H4.12378V15.224H5.47578V11.176Z" fill="#EB642A"/>
<path d="M5.47583 7.124H4.12383V8.476H5.47578L5.47583 7.124Z" fill="#EB642A"/>
<path d="M4.12378 17.924H2.77578V19.272H4.12378V17.924Z" fill="#EB642A"/>
<path d="M4.12378 15.224H2.77578V16.572L2.77583 17.926L4.12378 17.924V16.572L5.47578 16.574V15.224H4.12378Z" fill="#EB642A"/>
<path d="M4.12383 8.476H2.77578V9.824H4.12378L4.12383 8.476Z" fill="#EB642A"/>
<path d="M2.77583 16.574H1.42383V17.926H2.77583V16.574Z" fill="#EB642A"/>
<path d="M2.77578 9.824H1.42383V11.176L2.77578 11.176V9.824Z" fill="#EB642A"/>
</svg>
