<svg width="29" height="29" viewBox="0 0 29 29" fill="none" xmlns="http://www.w3.org/2000/svg">
<path fill-rule="evenodd" clip-rule="evenodd" d="M11.5257 4.91189H5.16211V2.79102H11.5257V4.91189Z" fill="#EB642A"/>
<path fill-rule="evenodd" clip-rule="evenodd" d="M5.16211 11.2754H11.5257V13.3963H5.16211V11.2754Z" fill="#EB642A"/>
<path fill-rule="evenodd" clip-rule="evenodd" d="M11.5254 11.2757V4.91211H13.6463V11.2757H11.5254Z" fill="#EB642A"/>
<path fill-rule="evenodd" clip-rule="evenodd" d="M5.16189 4.91211V11.2757H3.04102V4.91211H5.16189Z" fill="#EB642A"/>
<path fill-rule="evenodd" clip-rule="evenodd" d="M24.2528 4.91189H17.8892V2.79102H24.2528V4.91189Z" fill="#EB642A"/>
<path fill-rule="evenodd" clip-rule="evenodd" d="M17.8892 11.2754H24.2528V13.3963H17.8892V11.2754Z" fill="#EB642A"/>
<path fill-rule="evenodd" clip-rule="evenodd" d="M24.2529 11.2757V4.91211H26.3738V11.2757H24.2529Z" fill="#EB642A"/>
<path fill-rule="evenodd" clip-rule="evenodd" d="M17.8889 4.91211V11.2757H15.7681V4.91211H17.8889Z" fill="#EB642A"/>
<path fill-rule="evenodd" clip-rule="evenodd" d="M11.5257 17.6394H5.16211V15.5186H11.5257V17.6394Z" fill="#EB642A"/>
<path fill-rule="evenodd" clip-rule="evenodd" d="M5.16211 24.0029H11.5257V26.1238H5.16211V24.0029Z" fill="#EB642A"/>
<path fill-rule="evenodd" clip-rule="evenodd" d="M11.5254 24.0033V17.6396H13.6463V24.0033H11.5254Z" fill="#EB642A"/>
<path fill-rule="evenodd" clip-rule="evenodd" d="M5.16189 17.6396V24.0033H3.04102V17.6396H5.16189Z" fill="#EB642A"/>
<path fill-rule="evenodd" clip-rule="evenodd" d="M24.2528 17.6394H17.8892V15.5186H24.2528V17.6394Z" fill="#EB642A"/>
<path fill-rule="evenodd" clip-rule="evenodd" d="M17.8892 24.0029H24.2528V26.1238H17.8892V24.0029Z" fill="#EB642A"/>
<path fill-rule="evenodd" clip-rule="evenodd" d="M24.2529 24.0033V17.6396H26.3738V24.0033H24.2529Z" fill="#EB642A"/>
<path fill-rule="evenodd" clip-rule="evenodd" d="M17.8889 17.6396V24.0033H15.7681V17.6396H17.8889Z" fill="#EB642A"/>
</svg>
